<?xml version="1.0" encoding="UTF-8" standalone="no"?>
<svg width="77px" height="39px" viewBox="0 0 77 39" version="1.1" xmlns="http://www.w3.org/2000/svg" xmlns:xlink="http://www.w3.org/1999/xlink" xmlns:sketch="http://www.bohemiancoding.com/sketch/ns">
    <!-- Generator: Sketch 3.3.3 (12072) - http://www.bohemiancoding.com/sketch -->
    <title>yoalLOGO</title>
    <desc>Created with Sketch.</desc>
    <defs></defs>
    <g id="User's-flow" stroke="none" stroke-width="1" fill="none" fill-rule="evenodd" sketch:type="MSPage">
        <g id="Requested-Item" sketch:type="MSArtboardGroup" transform="translate(-81.000000, -20.000000)" fill="#FFFFFF">
            <g id="menu-bar-+-LOGO" sketch:type="MSLayerGroup">
                <g id="LOGO" sketch:type="MSShapeGroup">
                    <g id="yoalLOGO" transform="translate(81.000000, 20.000000)">
                        <path d="M17.668,31.784 L15.061,38.015 L10.844,38.015 L14.376,29.342 C15.372,30.345 16.47,31.159 17.668,31.784 L17.668,31.784 Z M24.661,34.316 L23.1,38.015 L18.464,38.015 L20.489,33.244 C21.776,33.796 23.166,34.153 24.661,34.316 L24.661,34.316 Z M46.499,0.914 L59.499,34.089 L76.797,34.089 L76.797,38.138 L57.282,38.138 L42.282,0.914 L46.499,0.914 L46.499,0.914 Z M25.589,5.711 C29.61,5.711 32.911,7.056 35.492,9.745 C38.018,12.353 39.282,15.614 39.282,19.526 C39.282,23.438 38.018,26.699 35.492,29.307 C32.911,31.996 29.61,33.341 25.589,33.341 C21.568,33.341 18.267,31.996 15.686,29.307 C13.159,26.699 11.896,23.438 11.896,19.526 C11.896,15.614 13.159,12.353 15.686,9.745 C18.267,7.056 21.568,5.711 25.589,5.711 L25.589,5.711 Z M25.589,30.366 C28.795,30.366 31.389,29.32 33.373,27.228 C35.274,25.218 36.225,22.65 36.225,19.526 C36.225,16.402 35.274,13.834 33.373,11.824 C31.389,9.732 28.795,8.686 25.589,8.686 C22.383,8.686 19.788,9.732 17.805,11.824 C15.903,13.834 14.952,16.402 14.952,19.526 C14.952,22.65 15.903,25.218 17.805,27.228 C19.788,29.32 22.383,30.366 25.589,30.366 L25.589,30.366 Z M26.706,29.467 C26.343,29.499 25.971,29.516 25.589,29.516 C24.391,29.516 23.286,29.357 22.273,29.04 L30.143,10.501 C31.116,10.971 31.989,11.614 32.762,12.428 C33.022,12.704 33.264,12.991 33.485,13.289 L29.244,23.436 L34.742,23.436 C34.304,24.629 33.644,25.691 32.762,26.624 C32.537,26.861 32.304,27.083 32.063,27.29 L27.624,27.29 L26.706,29.467 L26.706,29.467 Z M26.947,9.609 L19.437,27.556 C19.079,27.275 18.739,26.965 18.416,26.624 C17.641,25.805 17.038,24.886 16.606,23.867 L16.844,23.283 L16.084,22.257 C15.886,21.405 15.787,20.494 15.787,19.526 C15.787,18.087 16.006,16.777 16.443,15.594 L18.924,18.898 L22.703,9.888 C23.597,9.654 24.558,9.536 25.589,9.536 C26.056,9.536 26.508,9.561 26.947,9.609 L26.947,9.609 Z M10.738,15.027 L0.212,0.792 L5.329,0.792 L12.727,10.645 C11.806,11.972 11.143,13.433 10.738,15.027 L10.738,15.027 Z M32.216,5.616 L34.16,1.037 L39.411,1.037 L55.107,38.015 L50.471,38.015 L45.946,27.29 L39.323,27.29 C40.014,26.1 40.522,24.816 40.847,23.436 L44.326,23.436 L40.214,13.597 C40.153,13.444 40.089,13.291 40.023,13.14 L36.785,5.394 L35.822,7.699 C34.722,6.813 33.521,6.118 32.216,5.616 L32.216,5.616 Z M28.771,5.249 C27.56,4.905 26.265,4.717 24.886,4.686 L26.519,0.792 L30.636,0.792 L28.771,5.249 L28.771,5.249 Z" id="Shape"></path>
                    </g>
                </g>
            </g>
        </g>
    </g>
</svg>