<?xml version="1.0" standalone="no"?><!DOCTYPE svg PUBLIC "-//W3C//DTD SVG 1.1//EN" "http://www.w3.org/Graphics/SVG/1.1/DTD/svg11.dtd"><svg width="100%" height="100%" viewBox="0 0 249 249" version="1.1" xmlns="http://www.w3.org/2000/svg" xmlns:xlink="http://www.w3.org/1999/xlink" xml:space="preserve" style="fill-rule:evenodd;clip-rule:evenodd;stroke-linejoin:round;stroke-miterlimit:1.41421;"><g id="Layer1"><path d="M232.325,98.817c5.39,1.853 4.769,95.342 0,97.475c-2.339,1.046 -54.798,1.066 -107.663,0.815c-52.865,0.251 -105.323,0.231 -107.662,-0.815c-4.748,-2.123 -0.264,-90.956 -0.003,-97.391c-0.005,-0.028 -0.004,-0.056 0.003,-0.084l0.001,-0.004l0.001,-0.003c0.365,-1.494 2.192,-4.034 4.807,-6.967l-6.861,-17.917l61.731,-23.638l7.296,19.054l15.247,-19.269l24.124,19.088l5.106,-16.574l36.046,11.104l27.153,-27.873l47.349,46.125l-10.614,10.896c2.126,2.485 3.587,4.61 3.928,5.935l0.011,0.043ZM25.21,105.292c-0.398,7.868 -3.903,79.314 0.036,80.91c3.486,1.411 51.19,1.451 99.304,1.118l0,-0.001l0.112,0l0.113,0l0,0.001c48.113,0.333 95.818,0.293 99.303,-1.118c3.94,-1.596 0.434,-73.042 0.036,-80.91l-198.904,0ZM174.162,129.292c0,-6.623 -4.869,-12 -10.866,-12l-77.268,0c-5.997,0 -10.866,5.377 -10.866,12c0,6.623 4.869,12 10.866,12l77.268,0c5.997,0 10.866,-5.377 10.866,-12ZM170.54,129.292c0,-5.492 -4.037,-9.951 -9.01,-9.951l-73.735,0c-4.973,0 -9.011,4.459 -9.011,9.951c0,5.492 4.038,9.951 9.011,9.951l73.735,0c4.973,0 9.01,-4.459 9.01,-9.951ZM214.633,98.358l15.882,-16.304l-38.753,-37.752l-37.752,38.754l15.337,14.94c17.973,0.091 33.928,0.216 45.286,0.362ZM30.678,98.225c13.008,-0.225 34.072,-0.343 57.788,-0.379l-15.245,-39.809l-50.524,19.347l7.981,20.841ZM160.707,97.956l-15.181,-14.789l14.268,-14.647l-27.374,-8.433l-11.632,37.758c13.508,0.017 27.099,0.056 39.919,0.111ZM86.471,75.858l8.417,21.981c6.421,-0.006 12.996,-0.006 19.623,0l6.94,-22.527l-21.247,-16.811l-13.733,17.357Z" style="fill:#4fb4ff;"/></g></svg>