<?xml version="1.0" standalone="no"?><!DOCTYPE svg PUBLIC "-//W3C//DTD SVG 1.1//EN" "http://www.w3.org/Graphics/SVG/1.1/DTD/svg11.dtd"><svg width="100%" height="100%" viewBox="0 0 249 249" version="1.1" xmlns="http://www.w3.org/2000/svg" xmlns:xlink="http://www.w3.org/1999/xlink" xml:space="preserve" style="fill-rule:evenodd;clip-rule:evenodd;stroke-linejoin:round;stroke-miterlimit:1.41421;"><g id="Layer1"><g><g transform="matrix(0.986696,0.162577,-0.162577,0.986696,-94.7138,199.623)"><text x="181.491px" y="-98.661px" style="font-family:Moon;font-size:20.828px;font-weight:700;fill:#4fb4ff;">DELIVERED</text></g><path d="M135.988,103.042l84.741,13.963c15.082,2.485 25.309,16.747 22.824,31.829c-2.485,15.082 -16.747,25.309 -31.829,22.824l-124.449,-20.506c-6.663,-1.098 -12.379,-4.494 -16.469,-9.246l7.493,-4.467c3.275,4.505 8.255,7.775 14.18,8.751l115.908,19.098c11.954,1.97 23.259,-6.137 25.229,-18.091c1.97,-11.955 -6.137,-23.26 -18.091,-25.23l-87.185,-14.365l7.648,-4.56Z" style="fill:#4fb4ff;"/><path d="M166.114,54.827c-7.828,-13.129 -24.842,-17.433 -37.971,-9.605l-108.332,64.593c-13.128,7.827 -17.432,24.842 -9.604,37.97c7.828,13.129 24.842,17.432 37.97,9.604l108.332,-64.592c13.129,-7.828 17.432,-24.842 9.605,-37.97ZM157.464,59.984c-6.205,-10.406 -19.691,-13.818 -30.098,-7.613l-100.896,60.159c-10.407,6.205 -13.818,19.691 -7.613,30.098c6.205,10.406 19.691,13.817 30.097,7.613l100.897,-60.16c10.406,-6.204 13.818,-19.691 7.613,-30.097Z" style="fill:#4fb4ff;"/><g transform="matrix(0.858912,-0.512123,0.512123,0.858912,-475.857,-634.01)"><text x="59.948px" y="926.864px" style="font-family:Moon;font-size:20.828px;font-weight:700;fill:#4fb4ff;">Pending</text></g></g></g></svg>