<?xml version="1.0" standalone="no"?><!DOCTYPE svg PUBLIC "-//W3C//DTD SVG 1.1//EN" "http://www.w3.org/Graphics/SVG/1.1/DTD/svg11.dtd"><svg width="100%" height="100%" viewBox="0 0 249 249" version="1.1" xmlns="http://www.w3.org/2000/svg" xmlns:xlink="http://www.w3.org/1999/xlink" xml:space="preserve" style="fill-rule:evenodd;clip-rule:evenodd;stroke-linejoin:round;stroke-miterlimit:1.41421;"><g id="Layer1"><g><path d="M125.468,38.468c46.699,0 84.613,37.913 84.613,84.613c0,46.699 -37.914,84.613 -84.613,84.613c-46.7,0 -84.614,-37.914 -84.614,-84.613c0,-46.7 37.914,-84.613 84.614,-84.613ZM125.468,47.146c41.909,0 75.934,34.025 75.934,75.935c0,41.909 -34.025,75.934 -75.934,75.934c-41.91,0 -75.935,-34.025 -75.935,-75.934c0,-41.91 34.025,-75.935 75.935,-75.935Z" style="fill:#4fb4ff;"/><circle cx="125.484" cy="123.081" r="8.745" style="fill:#4fb4ff;"/><path d="M125.468,60.413c1.515,0 4.545,62.668 4.545,62.668l-9.091,0c0,0 3.03,-62.668 4.546,-62.668Z" style="fill:#4fb4ff;"/><path d="M154.436,152.746c-1.276,1.235 -28.968,-22.255 -28.968,-22.255l7.651,-7.41c0,0 22.592,28.43 21.317,29.665Z" style="fill:#4fb4ff;"/><g><path d="M62.705,123.009c0,-1.681 -1.365,-3.047 -3.047,-3.047l-15.757,0c-1.681,0 -3.047,1.366 -3.047,3.047l0,0.143c0,1.682 1.366,3.047 3.047,3.047l15.757,0c1.682,0 3.047,-1.365 3.047,-3.047l0,-0.143Z" style="fill:#4fb4ff;"/><path d="M210.114,123.009c0,-1.681 -1.366,-3.047 -3.047,-3.047l-15.757,0c-1.682,0 -3.047,1.366 -3.047,3.047l0,0.143c0,1.682 1.365,3.047 3.047,3.047l15.757,0c1.681,0 3.047,-1.365 3.047,-3.047l0,-0.143Z" style="fill:#4fb4ff;"/></g><g><path d="M125.555,60.302c1.682,0 3.047,-1.365 3.047,-3.047l0,-15.757c0,-1.682 -1.365,-3.047 -3.047,-3.047l-0.142,0c-1.682,0 -3.047,1.365 -3.047,3.047l0,15.757c0,1.682 1.365,3.047 3.047,3.047l0.142,0Z" style="fill:#4fb4ff;"/><path d="M125.555,207.71c1.682,0 3.047,-1.365 3.047,-3.047l0,-15.757c0,-1.681 -1.365,-3.047 -3.047,-3.047l-0.142,0c-1.682,0 -3.047,1.366 -3.047,3.047l0,15.757c0,1.682 1.365,3.047 3.047,3.047l0.142,0Z" style="fill:#4fb4ff;"/></g></g></g></svg>